<svg xmlns="http://www.w3.org/2000/svg" xmlns:xlink="http://www.w3.org/1999/xlink" viewBox="0 0 235 100.01"><defs><style>.faaf435f-2a8e-42ae-98c0-cc6b91a921b3{fill:#d0ff20;}.a5231a89-ae24-4e8e-ac7d-442b16502097{fill:#333;}.adb07117-d37b-42d9-91cf-9405ab5431d2{fill:none;}.ea5169da-545c-4763-ac66-3d627ba3932d{fill:url(#fd326037-da5b-4464-93c8-79e1b66ea020);}.ab560e29-c01f-4e55-ac76-915af3dc875d{fill:url(#b506348c-18bf-4e10-9eeb-f6faf1907054);}.b21ec250-7d82-40aa-aad5-0691e7b78902{fill:url(#a5be4f6c-b8c6-468c-b122-98ee7a9aa47c);}.a9b4a81e-969c-4907-89d6-26dd7ccac2a5{fill:url(#bbbcd52b-e929-4526-9215-567687b9bdb6);}.b04ef2e3-8703-4c28-9dfb-4fe0011a0d86{fill:#1f334b;}.ea94ac9b-ddd4-4aff-9f13-004a162dfc66{fill:#fff;opacity:0.1;}</style><radialGradient id="fd326037-da5b-4464-93c8-79e1b66ea020" cx="43.29" cy="57.54" r="37.61" gradientUnits="userSpaceOnUse"><stop offset="0.63" stop-color="#d5ff2a"/><stop offset="0.73" stop-color="#97ba35"/><stop offset="0.82" stop-color="#63803f"/><stop offset="0.9" stop-color="#3e5645"/><stop offset="0.96" stop-color="#273c49"/><stop offset="1" stop-color="#1f334b"/></radialGradient><radialGradient id="b506348c-18bf-4e10-9eeb-f6faf1907054" cx="43.14" cy="58.67" r="42.17" gradientUnits="userSpaceOnUse"><stop offset="0.82" stop-color="#1f334b"/><stop offset="0.93" stop-color="#1d3149"/><stop offset="0.96" stop-color="#182b42"/><stop offset="0.99" stop-color="#0f2137"/><stop offset="1" stop-color="#0a1c31"/></radialGradient><linearGradient id="a5be4f6c-b8c6-468c-b122-98ee7a9aa47c" x1="43.29" y1="56.8" x2="43.29" y2="-1.56" gradientUnits="userSpaceOnUse"><stop offset="0" stop-color="#d0ff20"/><stop offset="0.28" stop-color="#cefa25"/><stop offset="0.62" stop-color="#c6ea32"/><stop offset="1" stop-color="#bbd147"/></linearGradient><linearGradient id="bbbcd52b-e929-4526-9215-567687b9bdb6" x1="43.15" y1="48.59" x2="43.15" y2="18.78" gradientUnits="userSpaceOnUse"><stop offset="0" stop-color="#d0ff20"/><stop offset="0.01" stop-color="#cefe21" stop-opacity="0.99"/><stop offset="0.17" stop-color="#a4ea2e" stop-opacity="0.73"/><stop offset="0.34" stop-color="#80d83a" stop-opacity="0.51"/><stop offset="0.49" stop-color="#62ca43" stop-opacity="0.33"/><stop offset="0.64" stop-color="#4bbf4a" stop-opacity="0.18"/><stop offset="0.78" stop-color="#3ab750" stop-opacity="0.08"/><stop offset="0.9" stop-color="#30b253" stop-opacity="0.02"/><stop offset="1" stop-color="#2db054" stop-opacity="0"/></linearGradient></defs><title>Ресурс 18</title><g id="e0413275-3848-432c-b772-a18e84bfcd10" data-name="Слой 2"><g id="b66a8367-edc0-4af3-b537-5bc6f04af32d" data-name="Слой 1"><polygon class="faaf435f-2a8e-42ae-98c0-cc6b91a921b3" points="118.41 11 159.15 11 144.72 57 104.84 57 118.41 11"/><path class="a5231a89-ae24-4e8e-ac7d-442b16502097" d="M58.56,21.23l-.49,1.66,0,.05-.06.25s0,0,0,0l-.49,1.62A35.17,35.17,0,0,1,79,52.5a32.77,32.77,0,0,1,.31,4.66c0,19.43-16.23,35.25-36.19,35.25S7,76.59,7,57.16a34.51,34.51,0,0,1,1.12-8.77,35.27,35.27,0,0,1,21-23.68l-.5-1.63,0-.14,0-.15L28,21.12a38.52,38.52,0,0,0-4.34,70.05A40.89,40.89,0,0,0,60.18,92.4s.06,0,.09,0a38.54,38.54,0,0,0-1.71-71.13Z"/><polyline class="adb07117-d37b-42d9-91cf-9405ab5431d2" points="29.05 24.71 28.55 23.08 28.52 22.94 28.48 22.79 28.46 22.79 27.98 21.12"/><path class="adb07117-d37b-42d9-91cf-9405ab5431d2" d="M58.56,21.23l-.49,1.66,0,.05-.07.25s0,0,0,0l-.48,1.62"/><path class="ea5169da-545c-4763-ac66-3d627ba3932d" d="M80.9,57.54a37.62,37.62,0,1,1-52.39-34.6l.54,1.77h0l1.46,5a29,29,0,1,0,25.55,0l1.43-4.87h0l.56-1.87A37.6,37.6,0,0,1,80.81,55C80.87,55.82,80.9,56.68,80.9,57.54Z"/><path class="ab560e29-c01f-4e55-ac76-915af3dc875d" d="M86.13,56.14A43,43,0,0,0,59.87,17.39L58.93,20l-.29,1-.08.26-.49,1.66,0,.05-.06.25a36.93,36.93,0,1,1-29.44-.11l0-.14,0-.15L28,21.12l-.09-.26v-.05l-.36-1.24-.84-2.23c-1.37.57-2.69,1.18-4,1.83l0,0A43.14,43.14,0,0,0,.82,49.36s0,0,0,0A43.23,43.23,0,0,0,.14,57a42.71,42.71,0,0,0,2.8,15.26A43.26,43.26,0,0,0,19.49,92.89,42.94,42.94,0,0,0,63.6,94.82l0,0A43.12,43.12,0,0,0,85.27,65.66c0-.1,0-.19,0-.29A42.81,42.81,0,0,0,86.14,57C86.14,56.71,86.14,56.43,86.13,56.14Z"/><path class="b21ec250-7d82-40aa-aad5-0691e7b78902" d="M43.29,56.8,59.39,2.23a59.27,59.27,0,0,0-32.21,0Z"/><polygon class="a9b4a81e-969c-4907-89d6-26dd7ccac2a5" points="34.57 19.57 43.29 48.59 51.73 19.57 34.57 19.57"/><path class="b04ef2e3-8703-4c28-9dfb-4fe0011a0d86" d="M108.13,17.72h5.12L102.69,51.28H97.5L87,17.72h5.08l6.28,20.87c.33,1,.68,2.28,1,3.84s.61,2.74.73,3.5c.17-1.16.45-2.51.82-4s.67-2.66.91-3.39Z"/><path class="b04ef2e3-8703-4c28-9dfb-4fe0011a0d86" d="M118.23,51.28V17.72h4.92V51.28Z"/><path class="b04ef2e3-8703-4c28-9dfb-4fe0011a0d86" d="M141.52,51.28h-4.93V22.43h-8.86V17.72h22.65v4.71h-8.86Z"/><path class="b04ef2e3-8703-4c28-9dfb-4fe0011a0d86" d="M171.7,51.28l-3-9.32H157.17l-2.95,9.32H149L160.3,17.59h5.36l11.27,33.69Zm-4.31-14.05-2.82-9.13c-.21-.61-.5-1.58-.86-2.89s-.62-2.28-.75-2.89a56.63,56.63,0,0,1-1.63,6.17l-2.72,8.74Z"/><path class="b04ef2e3-8703-4c28-9dfb-4fe0011a0d86" d="M198.29,42.17a8.85,8.85,0,0,1-2.91,7c-1.93,1.7-4.61,2.55-8,2.55A17.42,17.42,0,0,1,179,50V44.79a21.38,21.38,0,0,0,4.38,1.69,16.42,16.42,0,0,0,4.31.62A6.31,6.31,0,0,0,192,45.86a4.2,4.2,0,0,0,1.39-3.32,4.38,4.38,0,0,0-1.27-3.19,18.53,18.53,0,0,0-5.28-3.1A13.93,13.93,0,0,1,181,32a9.64,9.64,0,0,1-1.69-5.74A8.43,8.43,0,0,1,182,19.65a10.36,10.36,0,0,1,7.19-2.41,19.45,19.45,0,0,1,8.62,2.11l-1.57,4.48A17.31,17.31,0,0,0,189.1,22a5.08,5.08,0,0,0-3.63,1.16,4,4,0,0,0-1.24,3.06,4.72,4.72,0,0,0,.5,2.24,5.49,5.49,0,0,0,1.62,1.76,27.39,27.39,0,0,0,4.09,2.18,21.81,21.81,0,0,1,4.86,2.86,8.3,8.3,0,0,1,2.27,3A10,10,0,0,1,198.29,42.17Z"/><rect class="b04ef2e3-8703-4c28-9dfb-4fe0011a0d86" x="135.14" y="66" width="98" height="2"/><path class="b04ef2e3-8703-4c28-9dfb-4fe0011a0d86" d="M89.76,77.12h3.41v1.58a8.39,8.39,0,0,1,2.09-1.56,4.56,4.56,0,0,1,1.92-.44,4.45,4.45,0,0,1,3.44,1.59,6.07,6.07,0,0,1,1.2,4l0,10.22-3.37,0,0-6.78a18.83,18.83,0,0,0-.23-3.68,2.59,2.59,0,0,0-.77-1.38,2,2,0,0,0-1.34-.47,2.33,2.33,0,0,0-1.77.8,4.39,4.39,0,0,0-1,2.18,21,21,0,0,0-.13,3.14l0,6.21h-3.4Z"/><path class="b04ef2e3-8703-4c28-9dfb-4fe0011a0d86" d="M104.7,71.09l3.41,0,.09,21.45h-3.41Z"/><path class="b04ef2e3-8703-4c28-9dfb-4fe0011a0d86" d="M112.53,70.65a2,2,0,0,1,1.54.74,2.63,2.63,0,0,1,.65,1.79A2.57,2.57,0,0,1,114.1,75a2,2,0,0,1-1.52.74A2,2,0,0,1,111,75a2.68,2.68,0,0,1-.65-1.81,2.53,2.53,0,0,1,.63-1.75A2,2,0,0,1,112.53,70.65ZM110.86,77h3.4l.07,15.47-3.41,0Z"/><path class="b04ef2e3-8703-4c28-9dfb-4fe0011a0d86" d="M117.36,77l3.41,0v1.59a7.94,7.94,0,0,1,2.1-1.56,4.49,4.49,0,0,1,1.92-.44,4.38,4.38,0,0,1,3.44,1.59,6,6,0,0,1,1.2,4l0,10.23H126.1l0-6.77a20.56,20.56,0,0,0-.23-3.68,2.57,2.57,0,0,0-.77-1.38,1.9,1.9,0,0,0-1.34-.47,2.32,2.32,0,0,0-1.77.79,4.47,4.47,0,0,0-1,2.19,19.54,19.54,0,0,0-.13,3.14l0,6.21h-3.41Z"/><path class="b04ef2e3-8703-4c28-9dfb-4fe0011a0d86" d="M146.34,85.75l-11,0a4.38,4.38,0,0,0,1.28,2.62,3.64,3.64,0,0,0,2.63,1,4.24,4.24,0,0,0,3.28-1.53l2.88,1.52a7.19,7.19,0,0,1-2.56,2.58,7.26,7.26,0,0,1-3.56.85,6.56,6.56,0,0,1-5.21-2.28,8.39,8.39,0,0,1-2-5.74,8.71,8.71,0,0,1,2-5.89,6.3,6.3,0,0,1,5-2.36,6.53,6.53,0,0,1,5.22,2.31,9.17,9.17,0,0,1,2,6.18Zm-3.42-3a4,4,0,0,0-1.34-2.1,3.53,3.53,0,0,0-2.31-.8,3.8,3.8,0,0,0-2.5.92,5.07,5.07,0,0,0-1.24,2Z"/><rect class="ea94ac9b-ddd4-4aff-9f13-004a162dfc66" y="0.01" width="235" height="100"/></g></g></svg>